<svg width="16" height="16" viewBox="0 0 16 16" fill="none" xmlns="http://www.w3.org/2000/svg">
<mask id="mask0_1_194" style="mask-type:alpha" maskUnits="userSpaceOnUse" x="0" y="0" width="16" height="16">
<rect width="16" height="16" fill="#D9D9D9"/>
</mask>
<g mask="url(#mask0_1_194)">
<path d="M5.91984 12.8C6.07738 12.8 6.22271 12.7738 6.35584 12.7213C6.489 12.6687 6.61933 12.5776 6.74683 12.4477L14.7946 4.25434C14.9315 4.11498 15 3.95175 15 3.76466C15 3.57754 14.9194 3.40189 14.7581 3.23771C14.6024 3.07924 14.4299 3 14.2405 3C14.0511 3 13.8786 3.07924 13.7229 3.23771L5.91984 11.1819L2.23209 7.42746C2.0952 7.2881 1.93486 7.21842 1.75107 7.21842C1.56728 7.21842 1.39475 7.30051 1.23349 7.46469C1.07783 7.62317 1 7.79882 1 7.99164C1 8.18446 1.07783 8.36011 1.23349 8.51859L5.09285 12.4477C5.22035 12.5776 5.35068 12.6687 5.48384 12.7213C5.61697 12.7738 5.7623 12.8 5.91984 12.8Z" fill="#444448"/>
</g>
</svg>
